<?xml version="1.0" encoding="UTF-8" standalone="no"?>
<!-- Created with Inkscape (http://www.inkscape.org/) -->

<svg
   width="695.07007"
   height="578.50281"
   viewBox="0 0 695.07007 578.50281"
   version="1.1"
   id="svg5"
   sodipodi:docname="Mock up Homepage.svg"
   inkscape:version="1.2.2 (732a01da63, 2022-12-09)"
   xml:space="preserve"
   inkscape:export-filename="LogoCartoonJasmin.svg"
   inkscape:export-xdpi="96"
   inkscape:export-ydpi="96"
   xmlns:inkscape="http://www.inkscape.org/namespaces/inkscape"
   xmlns:sodipodi="http://sodipodi.sourceforge.net/DTD/sodipodi-0.dtd"
   xmlns="http://www.w3.org/2000/svg"
   xmlns:svg="http://www.w3.org/2000/svg"><sodipodi:namedview
     id="namedview7"
     pagecolor="#ffffff"
     bordercolor="#000000"
     borderopacity="0.25"
     inkscape:showpageshadow="2"
     inkscape:pageopacity="0.0"
     inkscape:pagecheckerboard="0"
     inkscape:deskcolor="#d1d1d1"
     inkscape:document-units="px"
     showgrid="false"
     inkscape:zoom="0.5"
     inkscape:cx="776"
     inkscape:cy="591"
     inkscape:window-width="1920"
     inkscape:window-height="991"
     inkscape:window-x="-9"
     inkscape:window-y="-9"
     inkscape:window-maximized="1"
     inkscape:current-layer="layer1" /><defs
     id="defs2" /><g
     inkscape:label="Layer 1"
     inkscape:groupmode="layer"
     id="layer1"
     transform="translate(-612.46497,-250.7486)"><g
       id="g21527"
       transform="translate(2.8358681e-7,26.504297)"><g
         id="g20106"
         inkscape:label="Pick"><g
           id="g20193"
           inkscape:label="Pick"><ellipse
             style="opacity:1;fill:#f9bf3b;fill-opacity:1;stroke:none;stroke-width:2.40896;stroke-opacity:1"
             id="path2146"
             cx="960"
             cy="476.33585"
             rx="211.59134"
             ry="216.72112" /><g
             id="g15965"
             transform="matrix(1.3065046,0,0,1.1449225,-298.55291,-39.21026)"
             inkscape:label="Pick"><ellipse
               style="opacity:1;fill:#000000;fill-opacity:1;stroke:none;stroke-width:1.76986;stroke-opacity:1"
               id="path3975"
               ry="196.76335"
               rx="122.01527"
               cy="426.87024"
               cx="963.29773" /><ellipse
               style="opacity:1;fill:#e5c298;fill-opacity:1;stroke:none;stroke-width:1.5952;stroke-opacity:1"
               id="path6862"
               cx="963.29773"
               cy="458.39258"
               rx="24.540106"
               ry="33.730915" /><g
               id="g6875"
               inkscape:label="Pick"><ellipse
                 style="opacity:1;fill:#e5c298;fill-opacity:1;stroke:none;stroke-width:1.64096;stroke-opacity:1"
                 id="path4033"
                 cx="964.03052"
                 cy="365.67938"
                 rx="77.312973"
                 ry="97.465645" /><rect
                 style="opacity:1;fill:#000000;fill-opacity:1;stroke:none;stroke-width:1.55614;stroke-opacity:1"
                 id="rect5487"
                 width="48.793301"
                 height="183.83745"
                 x="932.05731"
                 y="-94.129333"
                 transform="matrix(0.94004342,0.34105478,-0.44139085,0.89731495,0,0)"
                 ry="27.518412" /><rect
                 style="opacity:1;fill:#000000;fill-opacity:1;stroke:none;stroke-width:1.31161;stroke-opacity:1"
                 id="rect5491"
                 width="39.256939"
                 height="162.32518"
                 x="-540.50897"
                 y="799.229"
                 transform="matrix(-0.76715084,0.64146674,0.69314393,0.7207992,0,0)"
                 ry="24.298267" /><ellipse
                 style="opacity:1;fill:#e5c298;fill-opacity:1;stroke:none;stroke-width:1.32564;stroke-opacity:1"
                 id="path5545"
                 cx="1027.1454"
                 cy="415.37381"
                 rx="9.160306"
                 ry="12.274809"
                 transform="rotate(-2.9571022)" /><g
                 id="g6808"><ellipse
                   style="opacity:1;fill:#292929;fill-opacity:1;stroke:none;stroke-width:1.533;stroke-opacity:1"
                   id="path6739"
                   cx="932.88544"
                   cy="348.45801"
                   rx="8.7938929"
                   ry="9.160305" /><ellipse
                   style="opacity:1;fill:#292929;fill-opacity:1;stroke:none;stroke-width:1.533;stroke-opacity:1"
                   id="ellipse6750"
                   cx="1001.0381"
                   cy="348.45801"
                   rx="8.7938929"
                   ry="9.160305" /></g><path
                 style="opacity:1;fill:#ffffff;fill-opacity:1;stroke:#000000;stroke-width:1.89828;stroke-opacity:1"
                 id="path6804"
                 sodipodi:type="arc"
                 sodipodi:cx="961.97974"
                 sodipodi:cy="397.78787"
                 sodipodi:rx="22.800146"
                 sodipodi:ry="23.836515"
                 sodipodi:start="0"
                 sodipodi:end="3.1415927"
                 sodipodi:arc-type="slice"
                 d="m 984.77988,397.78787 a 22.800146,23.836515 0 0 1 -11.40007,20.64303 22.800146,23.836515 0 0 1 -22.80015,0 22.800146,23.836515 0 0 1 -11.40007,-20.64303 h 22.80015 z"
                 transform="rotate(-0.72866645)" /></g></g></g><g
           id="g20060"
           inkscape:label="Pick"><g
             id="g16640"
             style="stroke:none;stroke-opacity:1"
             inkscape:label="Pick"><g
               id="g16023"
               style="stroke:none;stroke-opacity:1"
               inkscape:label="Pick"><rect
                 style="opacity:1;fill:#f06292;fill-opacity:1;stroke:none;stroke-width:1.74513;stroke-opacity:1"
                 id="rect7864"
                 width="139.5975"
                 height="178.99745"
                 x="890.20123"
                 y="505.37677"
                 ry="25.416378" /><rect
                 style="opacity:1;fill:#f06292;fill-opacity:1;stroke:none;stroke-width:0.619366;stroke-opacity:1"
                 id="rect16019"
                 width="80.524399"
                 height="39.087467"
                 x="920.25598"
                 y="496.04947"
                 ry="5.5501456" /></g><g
               id="g16596"
               style="stroke:none;stroke-opacity:1"
               inkscape:label="Pick"><g
                 id="g16606"
                 style="stroke:none;stroke-opacity:1"
                 inkscape:label="Pick"><path
                   style="opacity:1;fill:#f06292;fill-opacity:1;stroke:none;stroke-width:1.533;stroke-opacity:1"
                   d="m 890.63068,663.53605 c 0.77728,15.93419 0.77728,15.93419 0.77728,15.93419 l 0.004,0.59083 3.74427,1.30534 3.24046,1.01909 3.64122,1.11069 3.50382,0.99618 5.35878,1.38549 3.73282,0.87023 9.16094,1.79039 4.21025,-4.21025"
                   id="path16307" /><path
                   style="opacity:1;fill:#f06292;fill-opacity:1;stroke:none;stroke-width:1.49557;stroke-opacity:1"
                   d="m 1029.6841,661.61238 c -0.7012,16.80988 -0.7012,16.80988 -0.7012,16.80988 v 0.6233 l -3.378,1.37707 -2.9235,1.0751 -3.285,1.17173 -3.1611,1.05093 -4.8345,1.46163 -3.3676,0.91805 -8.26485,1.88879 -3.79838,-4.44163"
                   id="path16378" /><path
                   style="opacity:1;fill:#f06292;fill-opacity:1;stroke:none;stroke-width:1.55427;stroke-opacity:1"
                   d="m 923.65952,688.47371 -0.0397,0.12935 2.75426,0.45801 3.53111,0.54962 -0.012,0.0299 0.80308,0.11329 0.75891,0.10546 0.85128,0.10938 1.08415,0.15234"
                   id="path16434" /><path
                   style="opacity:1;fill:#f06292;fill-opacity:1;stroke:none;stroke-width:1.5552;stroke-opacity:1"
                   d="m 955.73289,682.79998 0.36386,8.66206 -32.74788,-3.0052 3.72962,-4.06587 z"
                   id="path16436" /><path
                   style="opacity:1;fill:#f06292;fill-opacity:1;stroke:none;stroke-width:1.533;stroke-opacity:1"
                   id="path16489"
                   d="m 975.19491,680.91876 c -0.0142,0.0594 -0.008,0.12772 -0.0426,0.17831 -0.0655,0.0966 -0.38909,0.30514 -0.46567,0.34838 -0.31909,0.18022 -0.35024,0.15223 -0.6929,0.30435 -0.13606,0.0604 -0.26781,0.13008 -0.40172,0.19512 -0.60636,0.18044 -0.40289,0.13351 -1.04325,0.26644 -0.50033,0.10387 -0.60373,0.13271 -1.1155,0.16772 -0.45518,0.0311 -0.59524,0.0165 -1.03795,0.003 -0.13355,-0.002 -0.2672,-0.0117 -0.40066,-0.006 -0.10311,0.004 -0.20486,0.0253 -0.30758,0.0353 -0.0776,0.008 -0.54051,0.043 -0.61718,0.045 -0.21565,0.006 -0.43144,-0.004 -0.64716,-0.003 -0.41598,-0.0334 -0.83354,-0.0238 -1.24945,-0.0564 -0.21714,-0.017 -0.43376,-0.0402 -0.65076,-0.0591 -1.17642,-0.22589 0.48184,0.0863 -0.60355,-0.0989 -0.0886,-0.0151 -0.17519,-0.0411 -0.26387,-0.0558 -0.16006,-0.0266 -0.32323,-0.0313 -0.48339,-0.0574 -0.0713,-0.0116 -0.14138,-0.0298 -0.21207,-0.0446 -0.0668,-0.009 -0.13611,-0.007 -0.20035,-0.027 -0.0585,-0.0185 -0.10773,-0.0587 -0.16176,-0.0877 -0.0449,-0.0241 -0.0891,-0.0495 -0.13499,-0.0717 -0.4553,-0.22042 0.16129,0.0817 -0.27304,-0.0971 -0.0364,-0.015 -0.0675,-0.0405 -0.10131,-0.0607 -0.0469,-0.0635 -0.13858,-0.0241 -0.19356,-0.0641 -0.0234,-0.017 -0.0167,-0.0613 -0.0415,-0.0761 -0.0219,-0.0131 -0.0541,0.0182 -0.0763,0.006 -0.0364,-0.083 -0.007,-0.0547 -0.0809,-0.0911 -0.13605,-0.005 -0.12725,0.0211 -0.23696,0.0944 -0.0276,0.0184 -0.0579,0.0322 -0.0868,0.0484 -0.0297,0.0166 -0.0567,0.039 -0.0889,0.0502 -0.0356,0.0124 -0.0743,0.0132 -0.11151,0.0197 -0.0401,0.007 -0.0806,0.0131 -0.12046,0.022 -0.0448,0.01 -0.088,0.027 -0.13324,0.0348 -0.0564,0.01 -0.11401,0.01 -0.17069,0.0175 -0.067,0.009 -0.13305,0.0246 -0.20018,0.0326 -0.0689,0.008 -0.13833,0.0107 -0.2075,0.016 -0.0729,0.009 -0.14576,0.0181 -0.21864,0.0271 -0.21146,0.0279 -0.41884,0.0729 -0.63195,0.0874 -0.053,0.004 -0.10638,0.012 -0.15915,0.006 -0.0844,-0.009 -0.11987,-0.0402 -0.18519,-0.0815 -0.0266,-0.0103 -0.0515,-0.0278 -0.0799,-0.0308 -0.0306,-0.003 -0.37372,0.0158 -0.37423,0.0158 -0.25165,-6.6e-4 -0.50578,-0.0333 -0.75664,-0.0507 -0.10043,-0.0132 -0.20086,-0.0264 -0.30129,-0.0397 -0.10781,-0.009 -0.21607,-0.0129 -0.32344,-0.026 -0.11116,-0.0135 -0.22077,-0.0378 -0.33162,-0.0537 -0.30755,-0.0441 -0.61745,-0.076 -0.92645,-0.10778 -0.51857,0.0798 -1.04445,0.0157 -1.56318,-0.0277 -0.71849,-0.0601 -0.36962,-0.022 -1.10622,-0.12453 -0.53835,-0.0902 -1.06974,-0.21455 -1.59905,-0.34655 -0.11592,-0.0289 -0.5967,-0.15778 -0.7419,-0.17314 -0.0951,-0.0101 -0.19129,0.003 -0.28693,0.004 -0.0905,0.0157 -0.18092,0.0314 -0.27138,0.0471 -0.0941,0.0179 -0.18791,0.0374 -0.28227,0.0538 -0.0996,0.0173 -0.2035,0.0156 -0.29942,0.0474 -0.10303,0.0341 -0.18687,0.11433 -0.29007,0.14797 -0.14487,0.0472 -0.6319,0.1032 -0.77715,0.12206 -0.66197,0.0605 -1.32872,0.0544 -1.98938,-0.015 -0.36386,-0.023 -0.72211,-0.0908 -1.08287,-0.13845 -0.0438,0.004 -0.1693,0.018 -0.21006,0.0167 -0.0783,-0.002 -0.15513,-0.0244 -0.23341,-0.0271 -0.21106,-0.007 -0.0708,0.036 -0.26081,-0.0531 -0.08,-0.0783 -0.3245,-0.0538 -0.40638,-0.11324 -0.0283,-0.0206 -0.0813,-0.11127 -0.053,-0.0907 12.21563,8.89686 11.44392,13.85589 12.17202,8.61002 0.0532,-0.13706 0.0745,-0.29123 0.15949,-0.41116 0.15913,-0.22452 0.8865,-0.81454 1.07405,-0.90459 0.31156,-0.1496 0.66116,-0.20161 0.99158,-0.30295 1.4744,-0.45222 0.67728,-0.29459 2.35271,-0.42479 1.1605,0.0303 1.42027,-0.006 2.56098,0.19167 0.40209,0.0695 0.7999,0.16378 1.19476,0.26671 1.0087,0.26292 1.98446,0.6403 2.96381,0.99283 0.64588,0.11562 0.77957,0.19076 1.4275,0.11284 1.22919,-0.14782 0.0786,-0.18953 1.46545,-0.2105 0.57785,-0.009 1.13688,0.0674 1.70918,0.1283 0.23756,0.0233 0.4757,0.0412 0.71268,0.0698 0.20991,0.0253 0.41728,0.0702 0.62761,0.0917 0.23723,0.0242 0.76792,0.0274 1.01044,0.0436 0.40492,0.0269 0.57317,0.0584 0.97167,0.11528 0.0942,0.0179 0.72255,0.13596 0.83919,0.16391 0.10923,0.0262 0.21646,0.0602 0.32397,0.0928 0.0844,0.0255 0.17067,0.0467 0.25168,0.0815 0.78404,0.33732 -0.31502,-0.0772 0.35488,0.16914 0.11647,0.0201 0.22491,0.0714 0.34007,0.0961 0.064,0.0138 0.13059,0.0139 0.19443,0.0285 0.0691,0.0159 0.13491,0.0438 0.2032,0.0628 0.14671,0.0409 0.29531,0.0745 0.44282,0.1124 0.14279,0.0281 0.29495,0.0725 0.44334,0.0433 0.0289,-0.006 0.43852,-0.17648 0.4643,-0.18396 0.22835,-0.0663 0.32438,-0.0532 0.5634,-0.0603 0.22385,-0.002 0.31318,0.007 0.53178,-0.0355 0.18803,-0.0365 0.36822,-0.10735 0.55601,-0.14508 0.29138,-0.0585 0.45996,-0.0621 0.76071,-0.0859 0.39823,-0.1667 0.51094,-0.19367 0.88498,-0.43876 0.16457,-0.10783 0.30425,-0.25255 0.4748,-0.35064 0.19236,-0.11065 0.39795,-0.19938 0.60767,-0.27196 0.48577,-0.16813 0.8265,-0.19399 1.32813,-0.26659 0.57468,-0.0571 1.15539,-0.0832 1.731,-0.0226 0.19745,0.0208 0.27245,0.0387 0.45955,0.0743 0.33692,0.0437 0.52073,-0.0792 0.81405,-0.20615 0.0668,-0.0289 0.13472,-0.0551 0.20208,-0.0826 0.5895,-0.14253 1.19959,-0.1898 1.80473,-0.19347 0.27772,0.0162 0.27765,0.011 0.54481,0.0457 0.19619,0.0254 0.21571,0.048 0.40549,0.0302 0.12648,-0.0119 0.20837,-0.0426 0.32872,-0.0785 0.0425,-0.027 0.0851,-0.054 0.12762,-0.0809 0.0511,-0.0219 0.10504,-0.038 0.15314,-0.0658 0.26921,-0.15562 0.0108,-0.0665 0.33022,-0.22071 0.20153,-0.0973 0.38432,-0.13929 0.59957,-0.20151 0.32744,-0.10094 0.6642,-0.16623 0.99511,-0.25383 0.11674,-0.0309 0.23105,-0.0709 0.34851,-0.0989 0.24915,-0.0595 0.45314,-0.0839 0.7053,-0.12099 1.01782,-0.0877 -0.31599,0.0311 0.53773,-0.0558 0.0588,-0.006 0.11799,-0.006 0.17677,-0.0123 0.0627,-0.006 0.12472,-0.0179 0.18742,-0.0237 0.0999,-0.009 0.27783,-0.0145 0.37783,-0.0183 0.34063,0.0199 0.68155,0.053 1.01874,0.10596 0.002,1.9e-4 0.2108,0.0201 0.21716,0.0182 0.0464,-0.0137 0.24964,-0.15864 0.28168,-0.17729 0.10436,-0.0608 0.21596,-0.10833 0.32356,-0.16321 0.1131,-0.0221 0.218,-0.0725 0.3294,-0.1002 0.1728,-0.0429 0.1036,0.005 0.2784,-0.0666 0.1726,-0.0881 0.092,-0.0522 0.2392,-0.11186 0.045,-0.0677 0.065,0.0215 0.098,0.0151 0.032,-0.006 0.1118,-0.027 0.086,-0.0456 -4.09022,-2.89952 -8.15551,-5.83673 -12.32051,-8.62771 -0.0857,-0.0574 -0.10286,0.1788 -0.15568,0.26739 -0.0301,0.0505 -0.0621,0.0999 -0.0931,0.14982 -0.20908,0.20199 -0.43854,0.40298 -0.7093,0.51956 -0.25709,0.1107 -0.56677,0.16178 -0.83772,0.21685 -0.13845,0.0281 -0.27712,0.0552 -0.41567,0.0828 -0.14288,0.0327 -0.28418,0.0732 -0.42863,0.098 -0.14727,0.0253 -0.29699,0.0334 -0.44525,0.052 -0.14235,0.0179 -0.28406,0.0407 -0.42654,0.0576 -0.13694,0.0162 -0.27451,0.0265 -0.41158,0.0415 -0.24673,0.027 -0.49307,0.0575 -0.73979,0.0845 -0.27592,0.009 -0.53833,0.0933 -0.80951,0.13384 -0.054,0.008 -0.24523,0.0331 -0.31274,0.0263 -0.0263,-0.003 -0.05,-0.0173 -0.075,-0.0259 -0.0144,-0.01 -0.0256,-0.0289 -0.0431,-0.0298 -0.0265,-10e-4 -0.0498,0.0189 -0.0759,0.0236 -0.0525,0.009 -0.10556,0.0167 -0.15883,0.0187 -0.0708,0.003 -0.14156,-0.003 -0.21233,-0.005 -0.38381,-0.009 -0.18705,0.004 -0.59501,-0.0436 -0.10182,-0.009 -0.20386,-0.0155 -0.30545,-0.0266 -0.0997,-0.0109 -0.19836,-0.031 -0.29831,-0.0394 -0.23723,-0.0199 -0.28842,-0.003 -0.52364,0.005 -0.18804,0.007 -0.37622,0.009 -0.56431,0.0148 -0.26223,0.003 -0.52368,-6.7e-4 -0.78474,-0.0267 -0.0716,-0.007 -0.1427,-0.0192 -0.21439,-0.0255 -0.39902,-0.0353 0.0344,0.0191 -0.31197,-0.0275 -0.36399,-0.005 -0.72817,-0.004 -1.09204,-0.0155 -0.16875,-0.013 -0.40091,-0.0636 -0.54255,0.0719 -0.076,0.0727 -0.10387,0.18683 -0.18089,0.25841 -0.14123,0.13125 -0.40443,0.19547 -0.57443,0.2521 -0.46347,0.0925 -0.24521,0.0605 -0.70067,0.10716 -0.10131,0.0104 -0.2024,0.0235 -0.304,0.0306 -0.0881,0.006 -0.177,-1.9e-4 -0.26489,0.009 -0.0772,0.008 -0.15239,0.0303 -0.22918,0.0419 -0.0604,0.009 -0.12139,0.0135 -0.18209,0.0203 -0.0556,0.0102 -0.11257,0.0146 -0.16676,0.0307 -0.0428,0.0127 -0.0796,0.0414 -0.12211,0.0549 -0.0477,0.0151 -0.0981,0.0196 -0.14702,0.0301 -0.0565,0.0122 -0.1121,0.0287 -0.16914,0.038 -0.14221,0.0232 -0.22247,0.0199 -0.36666,0.0231 -0.33289,-0.006 -0.66662,-0.0268 -0.99714,-0.0674 -0.12142,-0.0173 -0.24374,-0.0261 -0.36572,-0.038 -0.0941,-0.009 -0.18084,-0.0234 -0.27532,-0.0171 0.0155,-0.0353 0.0644,-0.0718 0.0464,-0.10597 -0.0186,-0.0354 -0.0771,-0.022 -0.11667,-0.0275 -0.0814,-0.0112 -0.16373,-0.0139 -0.24546,-0.0223 -0.22408,-0.0231 -0.46837,-0.0511 -0.68796,-0.0949 -0.15285,-0.0304 -0.3035,-0.071 -0.45525,-0.10653 -0.15291,-0.0263 -0.30698,-0.0466 -0.45872,-0.0789 -0.31741,-0.0677 -0.66407,-0.17468 -0.9784,-0.25627 -0.42397,-0.11004 -0.84917,-0.19355 -1.28047,-0.26802 -0.34394,-0.0422 -0.68939,-0.016 -1.03407,-0.0121 -0.0961,0.001 -0.19217,-0.006 -0.28817,-0.003 -0.0833,0.003 -0.166,0.0154 -0.24915,0.021 -0.0703,0.005 -0.14083,0.007 -0.21125,0.0103 -0.0921,0.0605 -0.21422,-0.0405 -0.30859,4.8e-4 -0.17011,0.0738 -0.2238,0.27411 -0.29905,0.41712 -0.12485,0.23727 -0.25279,0.4729 -0.37839,0.70977 -0.33375,0.35556 -0.716,0.66698 -1.14924,0.89458 -0.3791,0.19916 -0.40424,0.15663 -0.77902,0.31229 -0.10257,0.0426 -0.20025,0.0961 -0.30038,0.14418 -0.0831,0.0367 -0.16628,0.0734 -0.24942,0.11013 -0.0684,0.0225 -0.13876,0.0396 -0.20511,0.0675 -0.0567,0.0238 -0.10597,0.0631 -0.16255,0.0871 -0.0297,0.0126 -0.0651,0.008 -0.0942,0.022 -0.0351,0.0165 -0.0634,0.0448 -0.095,0.0672 -0.0395,0.0149 -0.079,0.0299 -0.11844,0.0448 -0.35612,0.14242 -0.73505,0.13971 -1.11156,0.13266 -0.49857,-0.009 -0.13241,-0.006 -0.60496,-0.008 -0.2057,-0.0163 -0.41032,0.0103 -0.61568,0.0156 -0.0425,10e-4 -0.085,0.002 -0.1275,5.2e-4 -0.0316,-9.4e-4 -0.0631,-0.0104 -0.0946,-0.007 -0.0272,0.003 -0.0521,0.017 -0.0781,0.0255 -0.0388,0.0757 -0.071,0.15515 -0.11632,0.22711 -0.12744,0.20223 -0.39986,0.44303 -0.59976,0.56161 -0.19489,0.1156 -0.4734,0.21576 -0.68281,0.29833 -0.28479,0.0835 -0.5756,0.14301 -0.86045,0.22622 -0.0622,0.0182 -0.1229,0.0416 -0.18553,0.0583 -0.2711,0.0725 -0.0183,-0.0215 -0.27545,0.0838 -0.0292,0.007 -0.0585,0.0138 -0.0877,0.0208 0,0 12.51734,8.07147 12.51734,8.07147 v 0 c 0.0122,-0.0188 0.0244,-0.0376 0.0366,-0.0565 0.0489,-0.0832 0.11188,-0.152 0.17266,-0.2265 0.12723,-0.15592 0.2487,-0.31187 0.42218,-0.42226 0.22125,-0.12889 0.35187,-0.21933 0.60179,-0.30144 0.27143,-0.0892 0.48779,-0.11372 0.76896,-0.13635 0.10413,-0.008 0.21063,-0.035 0.31306,-0.0145 0.07,0.014 0.1211,0.0757 0.18165,0.11363 0.0256,-0.002 0.0522,0.002 0.0767,-0.006 0.0205,-0.006 0.0359,-0.0236 0.054,-0.0351 0.0191,-0.0122 0.0381,-0.0245 0.0577,-0.036 0.0571,-0.0335 0.0897,-0.0503 0.15327,-0.0751 0.0482,-0.0188 0.0972,-0.0352 0.14587,-0.0528 0.32974,-0.1198 0.67039,-0.20161 1.01513,-0.2661 0.13286,-0.0249 0.26696,-0.0428 0.39974,-0.0681 0.12834,-0.0245 0.25563,-0.0541 0.38344,-0.0811 0.14962,-0.0482 0.48469,-0.14377 0.63742,-0.23333 0.0937,-0.0549 0.21166,-0.16669 0.27657,-0.26269 0.0338,-0.05 0.0578,-0.10615 0.0897,-0.15739 0.0374,-0.06 0.0788,-0.11741 0.1182,-0.17611 0.0487,-0.0654 0.0989,-0.12972 0.14599,-0.19633 0.16292,-0.2306 0.21137,-0.34153 0.42017,-0.55323 0.3495,-0.35436 0.77762,-0.6158 1.21982,-0.83656 0.2008,-0.0476 0.62829,-0.17693 0.86868,-0.14812 0.0805,0.01 0.14871,0.0648 0.22307,0.0972 0.0266,0.0197 0.0471,0.0538 0.0797,0.0592 0.0547,0.009 0.092,-0.0918 0.15077,-0.0702 0.16344,-0.05 0.0466,-0.0203 0.23567,-0.0497 0.052,-0.008 0.10302,-0.023 0.15546,-0.0267 0.23683,-0.0167 0.47331,0.0332 0.70618,0.0656 0.31486,0.0389 0.62671,0.0882 0.93908,0.144 0.20131,0.036 0.65239,0.11737 0.84301,0.16692 0.17635,0.0458 0.34896,0.10503 0.52344,0.15754 0.15334,0.0435 0.30829,0.0816 0.46002,0.13038 0.29332,0.0943 0.70844,0.25468 0.99643,0.37187 0.15141,0.0616 0.61108,0.27356 0.78044,0.29789 0.1268,0.0182 0.25583,-0.0139 0.38375,-0.0209 0.0312,0.002 0.0623,0.007 0.0935,0.006 0.049,-0.001 0.0968,-0.0157 0.14544,-0.0214 0.10009,-0.0119 0.2008,-0.0197 0.29957,-0.0412 0.3191,-0.0627 0.64415,-0.0969 0.95828,-0.18588 0.15575,-0.0405 0.2495,-0.0667 0.40873,-0.10034 0.0715,-0.0151 0.14394,-0.0257 0.21539,-0.0411 0.0713,-0.0154 0.14122,-0.0371 0.21275,-0.0514 0.0688,-0.0138 0.13992,-0.0155 0.20783,-0.0331 0.0386,-0.01 0.0728,-0.0327 0.10916,-0.0491 0.0852,-0.043 0.17402,-0.0788 0.25754,-0.12496 0.0527,-0.0291 0.10044,-0.0669 0.15329,-0.0958 0.0661,-0.0362 0.13501,-0.0668 0.20295,-0.0994 0.31749,-0.15191 0.18458,-0.0943 0.5466,-0.21626 0.20469,-0.0398 0.57728,-0.12815 0.78805,-0.10283 0.12498,0.015 0.23836,0.0811 0.35796,0.1203 0.16066,0.0527 0.21719,0.0608 0.38473,0.0342 0.37785,-10e-4 0.75528,0.0251 1.13271,0.0405 0.0574,-0.004 0.26813,-0.018 0.33756,-0.0313 0.043,-0.008 0.0837,-0.0257 0.12629,-0.0356 0.19949,-0.0464 0.40312,-0.0531 0.60708,-0.0599 0.22761,0.006 0.29481,0.004 0.52906,0.0243 0.20265,0.0174 0.32854,0.0432 0.52879,0.046 0.0734,10e-4 0.14659,-0.009 0.21997,-0.009 0.0909,2.3e-4 0.1817,0.007 0.27255,0.0103 0.0949,0.001 0.18997,-0.002 0.28473,0.004 0.24126,0.014 0.48032,0.0581 0.72286,0.0556 0.0941,0.005 0.54186,0.0277 0.64489,0.0147 0.072,-0.009 0.13847,-0.0435 0.20771,-0.0653 0.0396,-0.0256 0.0813,-0.0484 0.11895,-0.0769 0.025,-0.0189 0.0449,-0.0437 0.0681,-0.0647 0.0545,-0.0496 0.11627,-0.10383 0.17957,-0.14153 0.0418,-0.0249 0.087,-0.0438 0.13068,-0.0654 0.0589,-0.0292 0.11789,-0.0581 0.17683,-0.0872 0.27442,-0.11189 0.55149,-0.20608 0.83767,-0.28445 0.12604,-0.0345 0.25383,-0.0623 0.38008,-0.096 0.13359,-0.0356 0.26479,-0.0803 0.39939,-0.11194 0.15179,-0.0357 0.30606,-0.0598 0.45909,-0.0897 0.15053,-0.0359 0.30205,-0.0678 0.45158,-0.10761 0.39899,-0.10619 0.46302,-0.16112 0.88368,-0.22675 0.17219,-0.0269 0.34649,-0.0388 0.52035,-0.0508 0.41499,-0.0287 0.39059,-0.0185 0.76779,0.009 0.089,0.0226 0.2013,0.003 0.2659,0.0677 0.056,0.0559 0.1011,0.27907 0.036,0.23436 -4.11816,-2.82532 -8.17629,-5.7372 -12.25584,-8.61802 -0.009,-0.006 0.035,-0.0254 0.0287,-0.0163 -10e-4,0.002 -0.0959,0.0986 -0.10571,0.1087 -0.0363,0.031 -0.0631,0.0364 -0.1088,0.0602 -0.1111,0.058 -0.22327,0.10749 -0.34476,0.14083 -0.0596,0.001 -0.24328,0.008 -0.29913,-0.003 -0.53316,-0.10346 0.22393,0.008 -0.22912,-0.10686 -0.0105,-0.003 -0.18888,0.0186 -0.1959,0.0194 -0.0786,0.0199 -0.12819,0.0337 -0.21007,0.0488 -0.0484,0.009 -0.0978,0.0129 -0.14588,0.0233 -0.16423,0.0355 -0.3222,0.0993 -0.48795,0.12918 -0.30072,0.0524 -0.6338,0.11074 -0.91488,0.23345 -0.11018,0.0481 -0.21531,0.12548 -0.31409,0.19174 -0.0714,0.0355 -0.1404,0.0765 -0.2143,0.1065 -0.27181,0.11036 -0.34513,0.10858 -0.64159,0.17286 -0.34714,0.0753 -0.69261,0.15771 -1.0388,0.23718 -0.33501,0.0655 -0.358,0.0799 -0.70912,0.106 -0.45879,0.0341 -0.27152,0.004 -0.67015,0.0186 -0.0552,0.002 -0.10993,0.0138 -0.16517,0.0136 -0.056,-2.5e-4 -0.11154,-0.0101 -0.1673,-0.0151 -0.096,-0.004 -0.19154,-0.0103 -0.28509,0.0188 -0.0434,0.0135 -0.0835,0.0361 -0.12602,0.052 -0.17793,0.0664 -0.18684,0.0624 -0.38606,0.11322 -0.69494,0.12953 0.17921,-0.0299 -0.57559,0.0957 -0.0941,0.0157 -0.18732,0.0367 -0.28146,0.0524 -0.32566,0.0541 -0.65404,0.0952 -0.98369,0.11436 -0.21918,8.7e-4 -0.43842,0.007 -0.65754,0.002 -0.20458,-0.005 -0.41309,-0.0443 -0.6082,0.04 -0.17555,0.0937 -0.35354,0.18869 -0.52119,0.296 -0.28712,0.18379 -0.55529,0.39694 -0.84107,0.58274 -0.3953,0.23648 -0.55058,0.35483 -1.01047,0.50947 -0.61571,0.20703 -0.8381,0.20825 -1.487,0.25419 -0.55643,0.0394 -0.49882,0.0277 -1.02083,0.003 -0.40596,0.0254 -0.4386,0.0357 -0.85922,0.0259 -0.44,-0.0103 -0.88376,-0.0838 -1.32148,-0.004 -0.23707,0.0264 -0.30403,0.0481 -0.55595,0.009 -0.10005,-0.0156 -0.19917,-0.0407 -0.29423,-0.0756 -0.0708,-0.026 -0.13207,-0.0732 -0.20012,-0.10584 -0.12928,-0.062 -0.16349,-0.0638 -0.30502,-0.10178 -0.25624,-0.0633 -0.1272,-0.0301 -0.38707,-0.0997 -0.078,-0.0195 -0.15752,-0.0332 -0.23482,-0.0554 -0.0787,-0.0226 -0.15396,-0.0559 -0.23254,-0.0788 -0.0862,-0.0251 -0.31682,-0.0739 -0.4105,-0.0944 -0.0634,-0.007 -0.12652,-0.0243 -0.1903,-0.0215 -0.058,0.003 -0.11298,0.0266 -0.17001,0.0372 -0.0595,0.0111 -0.12013,0.0162 -0.17953,0.0281 -0.0635,0.0127 -0.12517,0.0338 -0.18889,0.0454 -0.11966,0.0217 -0.45115,0.0564 -0.55591,0.0682 -0.3202,0.0143 -0.53037,0.0264 -0.85554,0.0288 -0.23148,0.002 -0.74451,-0.0157 -0.98037,0.0128 -0.13744,0.0166 -0.2694,0.0643 -0.4054,0.0901 -0.16843,0.032 -0.33837,0.0554 -0.50755,0.0831 -0.46275,0.0876 -0.79401,0.16899 -1.27914,0.17198 -0.77644,0.005 -1.1153,-0.085 -1.881,-0.22069 -0.0221,-0.004 -1.13281,-0.20703 -1.20704,-0.2206 -2.08568,-0.12914 1.34586,0.082 -1.17606,-0.0677 -0.74404,-0.0442 -1.12034,-0.0842 -1.88909,-0.0849 -1.09236,-10e-4 -1.29546,0.0396 -2.4056,0.13084 -4.12078,0.48894 1.82967,-0.18143 -2.87768,0.21503 -0.41158,0.0347 -0.81457,0.14644 -1.22656,0.1759 -0.46369,0.0332 -0.9297,0.013 -1.39457,0.0116 -1.20329,-0.004 -0.78498,0.0264 -1.86955,-0.17498 -4.91836,-2.30788 -0.84667,-0.42974 11.64521,8.70396 0.0214,0.0157 -0.005,-0.0547 0.004,-0.0796 0.0183,-0.0498 0.22043,0.021 0.22701,-0.0273 0.293,-0.0373 0.0584,-0.0219 0.33806,-0.003 0.19434,0.0131 0.39072,-0.0141 0.58443,0.0175 0.14123,-0.0256 0.27849,-0.0681 0.41887,-0.0978 0.056,-0.0119 0.1127,-0.02 0.16892,-0.0307 0.063,-0.012 0.1259,-0.0249 0.18884,-0.0374 0.55885,-0.14071 -0.2153,0.0479 0.4662,-0.0932 0.0855,-0.0177 0.16839,-0.0466 0.25377,-0.0649 0.10547,-0.0226 0.2126,-0.0367 0.31841,-0.0576 0.22251,-0.0439 0.44258,-0.0997 0.66614,-0.13859 0.20788,-0.0318 0.56465,-0.0951 0.77272,-0.0893 0.15719,0.004 0.31151,0.0447 0.46825,0.0573 0.0964,0.008 0.19353,-0.002 0.29005,0.004 0.24416,0.0144 0.32493,0.0362 0.56045,0.0792 0.0719,0.0112 0.14311,0.0298 0.21582,0.0336 0.0901,0.005 0.32997,-0.0308 0.41066,-0.0375 0.26688,-0.0218 0.40342,-0.022 0.68365,-0.0115 0.15405,0.006 0.30781,0.0176 0.46171,0.0264 0.19004,0.0248 0.38065,0.0456 0.57011,0.0745 0.20175,0.0308 0.40233,0.0688 0.60326,0.10461 0.73031,0.13004 1.46144,0.26233 2.18079,0.44488 0.29204,0.0353 0.58437,0.0677 0.87727,0.0952 0.10006,0.009 0.20071,0.0131 0.30042,0.0259 0.22575,0.0288 0.44754,0.085 0.67509,0.1019 0.11919,0.0192 0.23809,0.0404 0.35758,0.0577 0.15163,0.0219 0.43322,0.0503 0.58612,0.0756 0.0843,0.0139 0.45867,0.0955 0.54802,0.10331 0.0912,0.008 0.18313,-4.3e-4 0.2747,-6.4e-4 0.0646,-0.0161 0.13089,-0.0262 0.19366,-0.0482 0.0428,-0.015 0.0797,-0.0438 0.12114,-0.0623 0.16701,-0.0744 0.34342,-0.0957 0.52515,-0.0925 0.13251,10e-4 0.26524,-0.005 0.39754,0.003 0.0696,0.004 0.13846,0.0156 0.2078,0.0223 0.19587,0.019 0.38961,0.0421 0.58292,0.0805 0.10115,0.0201 0.25907,0.0444 0.3177,0.14629 0.0307,0.0534 0.0128,0.12613 0.0647,0.16986 0.0724,0.0185 0.0309,0.0165 0.12401,-0.0133 0.0198,0.003 0.0232,0.0406 0.0431,0.0416 0.0276,10e-4 0.0474,-0.0317 0.0748,-0.0361 0.0406,-0.007 0.077,0.0527 0.1215,0.0216 0.0321,-0.002 0.0642,-0.009 0.0964,-0.007 0.28918,0.0155 -0.12983,0.0278 0.21046,0.0181 0.65296,-0.0185 -0.34024,0.0106 0.309,-0.0452 0.0565,-0.005 0.11322,0.006 0.16982,0.009 0.2065,-0.006 0.16057,-0.009 0.37131,0.002 0.0728,0.004 0.14527,0.0134 0.21813,0.014 0.0728,6.9e-4 0.14528,-0.009 0.21803,-0.01 0.48978,-0.008 -0.004,0.0203 0.4973,-0.0151 0.32096,0.008 0.64208,0.008 0.96301,0.0157 0.12269,0.003 0.24522,0.0131 0.36795,0.0137 0.22841,9.9e-4 0.41806,-0.0182 0.64576,-0.0357 0.72088,-0.0632 -0.0684,0.012 0.6378,-0.0734 0.12029,-0.0145 0.24139,-0.0217 0.36162,-0.0367 0.063,-0.008 0.60582,-0.0884 0.67197,-0.10856 0.0821,-0.0249 0.15416,-0.0752 0.23123,-0.11285 0.0926,-0.0481 0.18234,-0.10221 0.27784,-0.14427 0.46811,-0.20618 0.96365,-0.29684 1.45928,-0.40922 0.18972,-0.043 0.378,-0.0923 0.56798,-0.13411 0.20143,-0.0443 0.40409,-0.0829 0.60614,-0.12427 0.20919,-0.0312 0.42,-0.0529 0.62756,-0.0935 0.16894,-0.0331 0.33408,-0.0833 0.5005,-0.12726 0.55174,-0.14582 1.10524,-0.32356 1.68235,-0.318 0,0 -12.32715,-8.11082 -12.32715,-8.11082 z" /><path
                   style="opacity:1;fill:#f06292;fill-opacity:1;stroke:none;stroke-width:1.533;stroke-opacity:1"
                   d="m 955.38965,690.22461 c 0.63072,0.0944 1.2281,0.38146 1.85615,0.48613 0.89827,0.14971 1.79534,0.12449 2.69585,0.22097 0.20987,0.0225 0.75801,0.11966 1.01646,0.13258 0.54273,0.0271 1.09344,0.003 1.63519,0.0442 0.31754,0.0244 0.64973,0.0872 0.97227,0.0442 0.12041,-0.0161 0.23443,-0.0646 0.35355,-0.0884 0.27742,-0.0555 0.56366,-0.0489 0.83969,-0.0884 0.12319,-0.0176 0.37514,-0.0514 0.48614,-0.0884 0.0198,-0.007 0.024,-0.0391 0.0442,-0.0442 0.3063,-0.0766 1.38211,0.0502 1.63519,0.17678 0.095,0.0475 0.16752,0.13493 0.26516,0.17678 0.0948,0.0406 0.29265,0.11156 0.39775,0.13258 0.0655,0.0131 0.32676,0.0355 0.39775,0 0.0132,-0.007 -0.0132,-0.0376 0,-0.0442 0.0263,-0.0132 0.0589,0 0.0884,0 0.16204,0 0.32534,0.0201 0.48613,0 0.0787,-0.01 0.14401,-0.0691 0.22097,-0.0884 0.0857,-0.0214 0.1785,0.0173 0.26517,0 0.0646,-0.0129 0.11622,-0.0624 0.17677,-0.0884 0.18297,-0.0784 0.4728,-0.22714 0.66292,-0.26517 0.26491,-0.053 0.81632,0 1.10485,0 0.26042,0 0.58453,0.051 0.83969,0 0.0323,-0.006 0.0558,-0.0395 0.0884,-0.0442 0.0923,-0.0132 0.24776,0 0.35355,0 0.4617,0 0.95589,0.0458 1.41422,0 0.25114,-0.0251 0.58321,-0.0706 0.79549,-0.17678 0.094,-0.047 0.32679,0.071 0.39775,0 0.0233,-0.0233 0.0209,-0.0651 0.0442,-0.0884 0.008,-0.008 0.53629,0.005 0.57453,0 0.63192,-0.079 -0.54817,-0.0249 0.53033,-0.0884 0.13235,-0.008 0.2655,0.009 0.39774,0 0.26452,-0.0189 0.53662,-0.10023 0.7955,-0.13259 0.68948,-0.0862 1.38694,-0.0309 2.07713,-0.0884 0.0734,-0.006 0.14906,0.016 0.22097,0 0.0958,-0.0479 0.20098,-0.11091 0.30936,-0.13259 0.30031,-0.0601 0.62657,-0.013 0.92807,-0.0884 0.17946,-0.0449 0.31895,-0.14666 0.48614,-0.22097 0.11099,-0.0493 0.47044,-0.0829 0.53033,-0.0884 0.16031,-0.0146 0.32653,0.0199 0.48614,0 0.18051,-0.0226 0.47747,-0.10601 0.66291,-0.0442 0.0198,0.007 0.0295,0.0295 0.0442,0.0442 0.0442,0.0147 0.0871,0.0341 0.13258,0.0442 0.13023,0.0289 0.26834,0.0118 0.39775,0.0442 0.0202,0.005 0.0244,0.0376 0.0442,0.0442 0.17072,0.0569 1.00846,0.13418 1.23743,0.0884 0.0421,-0.008 0.19143,-0.081 0.22097,-0.0884 0.0429,-0.0107 0.0892,0.009 0.13259,0 0.17283,-0.0346 0.35885,-0.0897 0.53033,-0.13258 0.13858,-0.0347 0.30176,0.028 0.44194,0 0.11887,-0.0238 0.22567,-0.0671 0.35355,-0.0884 0.20637,-0.0344 0.41436,-0.0101 0.61872,-0.0442 0.6392,-0.10653 -0.30979,0.0333 0.35355,-0.13258 0.15252,-0.0381 0.33363,0.0381 0.48614,0 0.19345,-0.0484 0.37802,-0.0998 0.57452,-0.13258 0.0291,-0.005 0.0589,0 0.0884,0 0.0442,0 0.089,0.007 0.13258,0 0.15607,-0.026 0.28309,-0.10611 0.44195,-0.13258 0.25652,-0.0428 0.54059,0.051 0.79549,0 0.24427,-0.0489 0.0551,-0.0442 0.17678,-0.0442 0.12784,0 0.31923,0.0409 0.44194,0 0.0576,-0.0192 0.12245,-0.017 0.17678,-0.0442 0.0132,-0.007 -0.0104,-0.0338 0,-0.0442 0.045,-0.045 0.24579,0.0212 0.30936,0 0.0198,-0.007 0.0242,-0.0385 0.0442,-0.0442 0.14489,-0.0414 0.3431,-0.0407 0.48614,-0.0884 0.13174,-0.0439 0.24103,-0.15066 0.39774,-0.17678 0.10312,-0.0172 0.20624,0.0229 0.30936,0 0.0774,-0.0172 0.14401,-0.0691 0.22097,-0.0884 0.0429,-0.0107 0.0897,0.0107 0.13259,0 0.0202,-0.005 0.024,-0.0391 0.0442,-0.0442 0.30228,-0.0756 0.82018,0.0548 1.14905,0 0.13397,-0.0223 0.27011,-0.042 0.39775,-0.0884 0.0929,-0.0338 0.16929,-0.10861 0.26516,-0.13258 0.29208,-0.073 0.41073,-0.004 0.66291,-0.0884 0.0198,-0.007 0.0244,-0.0376 0.0442,-0.0442 0.12524,-0.0417 0.32474,0.0586 0.44194,0 0.19221,-0.0961 0.40008,-0.16631 0.61872,-0.22097 0.0572,-0.0143 0.11961,0.0143 0.17678,0 0.0319,-0.008 0.0559,-0.0388 0.0884,-0.0442 0.14204,-0.0237 0.30062,0.0283 0.44195,0 0.30771,-0.0615 0.59046,-0.015 0.88388,-0.0884 0.0461,-0.0115 0.23024,0.0349 0.26516,0 0.0104,-0.0104 -0.0104,-0.0338 0,-0.0442 0.0221,-0.0221 0.10607,0.0177 0.13259,0 0.0347,-0.0231 0.0511,-0.0697 0.0884,-0.0884 0.0395,-0.0198 0.10134,0.0312 0.13259,0 0.0104,-0.0104 -0.0104,-0.0338 0,-0.0442 0.0225,-0.0225 0.19562,0.006 0.22097,0 0.21341,-0.0534 -0.002,-0.021 0.13258,-0.0884 0.0424,-0.0212 0.13434,0.0141 0.17678,0 0.0458,-0.0153 0.0887,-0.0665 0.13258,-0.0884 0.0368,-0.0184 0.14874,0.028 0.17678,0 0.0548,-0.0548 0.0114,-0.14402 0.0442,-0.17678 0.0104,-0.0104 0.0338,0.0104 0.0442,0 0.0104,-0.0104 0.0132,-0.0376 0,-0.0442 -0.14192,-0.071 -0.29659,-0.11318 -0.44195,-0.17678 -0.13292,-0.0581 -0.27702,-0.0963 -0.39774,-0.17677 -0.0123,-0.008 0.0122,-0.036 0,-0.0442 -0.13976,-0.0932 -0.3311,-0.068 -0.48614,-0.13258 -0.068,-0.0283 -0.10947,-0.10267 -0.17678,-0.13258 -0.43124,-0.19167 -0.93586,-0.0284 -1.37002,-0.26517 -0.0549,-0.0299 -0.079,-0.10042 -0.13258,-0.13258 -0.003,-0.002 -0.3361,-0.0405 -0.22097,-0.13258 0.58173,-0.46539 1.57368,-0.43522 2.2539,-0.26517 0.0373,0.009 0.13815,-0.0193 0.17678,0 0.0745,0.0373 0.10532,0.1339 0.17678,0.17678 0.0253,0.0152 0.0604,-0.009 0.0884,0 0.13795,0.046 -0.0147,0.0295 0.0442,0.0884 0.0914,0.0914 -0.004,-0.13973 0.0884,0.0442 0.0132,0.0263 -0.0132,0.062 0,0.0884 0.0506,0.10113 0.17374,0.0381 0.22097,0.13258 0.0132,0.0263 -0.0208,0.0676 0,0.0884 0.0459,0.0459 0.0995,2.1e-4 0.13258,0.13258 0.0442,0.1768 -0.0473,0.56578 -0.17678,0.66292 -0.29435,0.22076 -0.25087,0.0815 -0.83969,0.22097 -0.0922,0.0218 -0.89872,0.28113 -1.23743,0.30936 -0.63863,0.0532 -1.47786,0.0143 -2.12132,-0.0442 -0.3425,-0.0311 -0.6755,-0.13191 -1.01647,-0.17677 -0.91817,-0.12082 -1.90752,-0.18486 -2.82843,-0.22098 -0.70424,-0.0276 -1.4173,0.0381 -2.12132,0 -0.26826,-0.0145 -0.97218,-0.0589 -1.32582,-0.17677 -0.1464,-0.0488 -0.37159,-0.15062 -0.48614,-0.26517 -0.0336,-0.0336 -0.1072,-0.21156 -0.17677,-0.17677 -0.0475,0.0238 -0.0589,0.0884 -0.0884,0.13258 -0.2357,0.14731 -0.45523,0.3244 -0.70711,0.44194 -0.42777,0.19963 -1.06971,0.2269 -1.5026,0.30936 -0.43885,0.0836 -1.34617,0.32529 -1.81196,0.39775 -0.38098,0.0593 -0.77125,0.0556 -1.14905,0.13258 -0.42035,0.0856 -0.8228,0.24355 -1.23744,0.35355 -0.32937,0.0874 -2.1698,0.50724 -2.29809,0.53033 -0.62249,0.11205 -1.64872,0.11856 -2.20971,0.13259 -0.94796,0.0237 -1.76124,-0.21374 -2.65165,-0.53033 -1.15912,-0.41214 -0.32625,-0.24276 -1.50261,-0.48614 -0.96861,-0.2004 -1.93362,-0.33565 -2.91681,-0.44194 -0.26525,-0.0287 -0.52948,-0.0679 -0.7955,-0.0884 -0.0734,-0.006 -0.15109,0.0233 -0.22097,0 -0.21002,-0.07 0.0512,-0.0786 -0.35355,-0.13258 -0.13142,-0.0175 -0.26517,0 -0.39775,0 -0.2357,0 -0.47205,-0.0174 -0.7071,0 -0.16426,0.0122 -0.32218,0.0728 -0.48614,0.0884 -0.14665,0.014 -0.29472,-0.005 -0.44194,0 -0.28012,0.01 -0.55954,0.0354 -0.83969,0.0442 -0.63279,0.0198 -1.2676,-0.0211 -1.90035,0 -0.45469,0.0152 -0.84096,0.0836 -1.28163,0.13258 -0.46617,0.0518 -0.94723,-0.0442 -1.41422,-0.0442 -0.20623,0 -0.41592,-0.0376 -0.61871,0 -0.20176,0.0374 -0.38063,0.15385 -0.57453,0.22097 -0.46741,0.16179 -0.94246,0.33716 -1.41421,0.48613 -0.28922,0.0913 -0.43807,0.0805 -0.66291,0.22098 -0.0936,0.0585 -0.20713,0.16985 -0.30936,0.22097 -0.0543,0.0272 -0.13383,10e-4 -0.17678,0.0442 -0.002,0.002 -0.086,0.13019 -0.0884,0.13258 -0.0104,0.0104 -0.031,-0.007 -0.0442,0 -0.0888,0.0444 -0.22175,0.17834 -0.26517,0.26517 -0.0147,0.0295 -0.0338,0.0571 -0.0442,0.0884 -0.009,0.028 0.028,0.0791 0,0.0884 -0.0419,0.014 -0.0907,-0.014 -0.13258,0 -0.014,0.005 0.0104,0.0338 0,0.0442 -0.0233,0.0233 -0.0571,0.0338 -0.0884,0.0442 -0.0283,0.009 -0.21713,0.0403 -0.22097,0.0442 -0.0208,0.0208 0.009,0.0604 0,0.0884 -0.0293,0.0879 -0.0412,0.0206 -0.0884,0.0442 -0.0929,0.0464 8.6e-4,0.0875 -0.0442,0.13258 -0.0104,0.0104 -0.0338,-0.0104 -0.0442,0 -0.0859,0.0859 0.0433,0.24077 0.0884,0.35356 z"
                   id="path16562" /><path
                   style="opacity:1;fill:#f06292;fill-opacity:1;stroke:none;stroke-width:1.533;stroke-opacity:1"
                   d="m 995.10937,686.89062 c -0.0919,0.0933 -0.19226,0.18683 -0.26562,0.29688 -0.0356,0.0534 -0.0581,0.11844 -0.0937,0.17187 -0.008,0.0123 -0.0237,0.0186 -0.0312,0.0312 -0.0289,0.0481 -0.0397,0.10499 -0.0625,0.15625 -0.0563,0.12674 -0.0511,0.0481 -0.0937,0.21875 -0.008,0.0318 -0.0543,0.14952 -0.0469,0.17188 0.0237,0.0711 0.0704,0.13287 0.14063,0.17187 0.0245,0.0136 0.0536,0.0176 0.0781,0.0312 0.0228,0.0127 0.0402,0.0335 0.0625,0.0469 0.026,0.0156 0.0775,-0.005 0.10938,0 0.0509,0.008 0.0927,0.0349 0.14062,0.0469 0.0101,0.003 0.0216,-0.004 0.0312,0 0.0661,0.0264 0.11026,0.0678 0.1875,0.0781 0.0942,0.0126 0.20011,0 0.29688,0 0.14583,0 0.29167,0 0.4375,0 0.0688,0 0.15026,0.0114 0.21875,0 0.0639,-0.0107 0.12406,-0.0207 0.1875,-0.0312 0.019,-0.003 0.0435,0.005 0.0625,0 0.016,-0.004 0.0305,-0.0138 0.0469,-0.0156 0.0311,-0.003 0.0627,0.003 0.0937,0 0.18152,-0.0181 -0.0118,-0.0156 0.0937,-0.0156 0.0662,0 0.15443,0.0129 0.21875,0 0.0114,-0.002 0.0198,-0.0133 0.0312,-0.0156 0.0255,-0.005 0.0534,0.008 0.0781,0 0.007,-0.002 0.009,-0.0133 0.0156,-0.0156 0.0328,-0.0109 0.0766,0.0109 0.10938,0 0.007,-0.002 0.009,-0.0123 0.0156,-0.0156 0.0233,-0.0116 0.0539,0.01 0.0781,0 0.0108,-0.004 0.006,-0.0248 0.0156,-0.0312 0.009,-0.006 0.021,0.002 0.0312,0 0.0162,-0.003 0.0306,-0.0129 0.0469,-0.0156 0.0453,-0.008 0.0956,0.009 0.14062,0 0.11444,-0.0229 0.22683,-0.0521 0.34375,-0.0781 0.058,-0.0129 0.11541,-0.0171 0.17188,-0.0312 0.0272,-0.007 0.0509,-0.0244 0.0781,-0.0312 0.0101,-0.003 0.0216,0.004 0.0312,0 0.0174,-0.007 0.0296,-0.0239 0.0469,-0.0312 0.0197,-0.008 0.0433,-0.006 0.0625,-0.0156 0.0513,-0.0257 0.0731,-0.0574 0.125,-0.0781 0.01,-0.004 0.0219,0.005 0.0312,0 0.0417,-0.0208 0.0677,-0.0573 0.10937,-0.0781 0.0519,-0.026 0.12002,-0.0418 0.17188,-0.0625 0.0413,-0.0165 0.0837,-0.0303 0.125,-0.0469 0.0189,-0.008 0.0286,-0.0377 0.0469,-0.0469 0.014,-0.007 0.0317,0.004 0.0469,0 0.0313,-0.008 0.0509,-0.0401 0.0781,-0.0469 0.0152,-0.004 0.0344,0.009 0.0469,0 0.0132,-0.01 0.006,-0.0332 0.0156,-0.0469 0.003,-0.004 0.0104,0 0.0156,0 0.0342,0 0.0812,-0.0125 0.10937,-0.0312 0.006,-0.004 0.0236,-0.0548 0.0469,-0.0625 0.01,-0.003 0.0214,0.003 0.0312,0 0.014,-0.005 0.0181,-0.0247 0.0312,-0.0312 0.005,-0.002 0.0119,0.004 0.0156,0 0.007,-0.007 -0.007,-0.0239 0,-0.0312 0.004,-0.004 0.0119,0.004 0.0156,0 0.0346,-0.0346 0.0575,-0.0838 0.0781,-0.125 0.0422,-0.0844 0.0202,-0.18757 0.0312,-0.28125 0.003,-0.0231 0.0662,-0.15164 0.0156,-0.17188 -0.15936,-0.0637 -0.11038,-0.0239 -0.25,-0.0937 -0.0272,-0.0136 -0.0495,-0.0367 -0.0781,-0.0469 -0.10121,-0.0362 -0.15538,-0.0226 -0.25,-0.0312 -0.10438,-0.009 -0.20808,-0.0238 -0.3125,-0.0312 -0.0574,-0.004 -0.11444,-0.0122 -0.17187,-0.0156 -0.0323,-0.002 -0.11602,0.0101 -0.15625,0 -0.0113,-0.003 -0.0208,-0.0104 -0.0312,-0.0156 -0.0312,-0.0104 -0.0612,-0.0262 -0.0937,-0.0312 -0.12821,-0.0197 -0.27919,0.0233 -0.40625,0.0312 -0.0728,0.005 -0.14598,-0.005 -0.21875,0 -0.0827,0.005 -0.15408,0.0318 -0.23438,0.0469 -0.0884,0.0166 -0.1784,0.0251 -0.26562,0.0469 -0.0527,0.0132 -0.10261,0.0379 -0.15625,0.0469 -0.0243,0.004 -0.18229,-0.003 -0.21875,0 -0.17693,0.0147 -0.0149,0.0138 -0.17188,0.0312 -0.0977,0.0109 -0.19848,0.0223 -0.29687,0.0312 -0.0815,0.007 -0.16931,-0.0134 -0.25,0 -0.0115,0.002 -0.0197,0.0145 -0.0312,0.0156 -0.0879,0.009 -0.15162,-0.005 -0.23438,0.0156 -0.0236,0.006 -0.0558,-0.009 -0.0781,0 -0.0174,0.007 -0.0294,0.0243 -0.0469,0.0312 -0.01,0.004 -0.0211,-0.003 -0.0312,0 -0.0288,0.007 -0.0398,0.0199 -0.0625,0.0312 -0.0125,0.006 -0.0344,-0.006 -0.0469,0 -0.065,0.0325 0.0167,-10e-4 -0.0156,0.0312 -0.0513,0.0513 -0.14882,-0.008 -0.1875,-0.0312 z"
                   id="path16566" /><path
                   style="opacity:1;fill:#f06292;fill-opacity:1;stroke:none;stroke-width:1.533;stroke-opacity:1"
                   d="m 982.78125,689.5625 c -0.0625,0.0104 -0.12882,0.007 -0.1875,0.0312 -0.0844,0.0344 -0.15447,0.0969 -0.23438,0.14062 -0.2801,0.15339 -0.37595,0.1993 -0.625,0.3125 -0.0616,0.028 -0.12694,0.0479 -0.1875,0.0781 -0.007,0.003 -0.008,0.0138 -0.0156,0.0156 -0.0152,0.004 -0.0317,-0.004 -0.0469,0 -0.0391,0.01 -0.0723,0.0814 -0.10937,0.0937 -0.01,0.003 -0.0219,-0.005 -0.0312,0 -0.002,10e-4 -0.004,0.1053 0,0.10938 0.004,0.004 0.0119,-0.004 0.0156,0 0.0339,0.0339 0.0179,0.0537 0.0312,0.0937 0.002,0.005 0.0127,-0.004 0.0156,0 0.004,0.007 0.0383,0.0852 0.0469,0.0937 0.0263,0.0263 0.0768,0.0299 0.0937,0.0469 0.0281,0.0281 -0.0674,0.0115 0.0312,0.0312 0.0617,0.0123 0.35073,0.009 0.40625,0 0.023,-0.004 0.0399,-0.0256 0.0625,-0.0312 0.0285,-0.007 0.0667,0.0108 0.0937,0 0.0216,-0.009 0.0401,-0.0249 0.0625,-0.0312 0.015,-0.004 0.0313,0.002 0.0469,0 0.0785,-0.009 0.15636,-0.0226 0.23437,-0.0312 0.0417,-0.005 0.0843,-0.005 0.125,-0.0156 0.007,-0.002 0.009,-0.0133 0.0156,-0.0156 0.0208,-0.007 0.0583,0.01 0.0781,0 0.0596,-0.0298 0.13719,-0.0222 0.20313,-0.0469 0.0218,-0.008 0.0404,-0.0239 0.0625,-0.0312 0.0395,-0.0132 0.0836,0.005 0.125,0 0.0477,-0.005 0.093,-0.0253 0.14062,-0.0312 0.0402,-0.005 0.0852,0.008 0.125,0 0.0703,-0.0141 0.13554,-0.0334 0.20313,-0.0469 0.0785,-0.0157 0.0229,0.0298 0.125,-0.0156 0.0238,-0.0106 0.038,-0.038 0.0625,-0.0469 0.15185,-0.0552 0.0611,2.4e-4 0.15625,-0.0156 0.0763,-0.0127 0.15918,-0.0281 0.23437,-0.0469 0.0351,-0.009 0.0627,-0.0352 0.0937,-0.0469 0.0461,-0.0173 0.13441,-0.0387 0.1875,-0.0469 0.0975,-0.015 0.19876,-0.036 0.29688,-0.0469 0.0155,-0.002 0.0321,0.005 0.0469,0 0.0178,-0.006 0.0296,-0.0239 0.0469,-0.0312 0.0509,-0.0218 0.22409,-0.0543 0.28125,-0.0625 0.0684,-0.01 0.15588,0.005 0.21875,-0.0312 0.0192,-0.011 0.0277,-0.0359 0.0469,-0.0469 0.12676,-0.0724 0.0148,0.0107 0.0937,-0.0156 0.007,-0.002 0.008,-0.0138 0.0156,-0.0156 0.11476,-0.0287 0.22169,0.0389 0.32812,0.0625 0.16055,0.0357 0.33291,0.0864 0.5,0.0625 0.0208,-0.005 0.0417,-0.0104 0.0625,-0.0156 0.005,-0.005 0.009,-0.0133 0.0156,-0.0156 0.03,-0.01 0.0831,0.002 0.10937,-0.0156 0.0123,-0.008 0.0181,-0.0247 0.0312,-0.0312 0.0273,-0.0136 0.11764,-0.003 0.15625,-0.0156 0.0717,-0.0239 0.0964,-0.0218 0.17188,-0.0312 0.0349,-0.004 0.0749,-0.0244 0.10937,-0.0312 0.0153,-0.003 0.0324,0.006 0.0469,0 0.0216,-0.009 0.0409,-0.0226 0.0625,-0.0312 0.0448,-0.0179 0.38428,0.004 0.4375,0 0.0345,-0.003 0.11519,-0.0107 0.15625,-0.0312 0.007,-0.003 0.009,-0.0133 0.0156,-0.0156 0.0271,-0.009 0.0657,0.006 0.0937,0 0.0445,-0.009 0.0786,-0.0254 0.125,-0.0312 0.0982,-0.0123 0.19883,-0.0116 0.29688,-0.0312 0.045,-0.009 0.08,-0.0379 0.125,-0.0469 0.025,-0.005 0.0531,0.005 0.0781,0 0.0943,-0.0189 -0.0127,-0.007 0.0469,-0.0312 0.0199,-0.008 0.0428,-0.007 0.0625,-0.0156 0.0235,-0.0101 0.0506,-0.04 0.0781,-0.0469 0.0307,-0.008 0.0632,-0.007 0.0937,-0.0156 10e-4,-3.9e-4 0.10554,-0.0441 0.125,-0.0469 0.0412,-0.006 0.0837,0.005 0.125,0 0.0636,-0.008 0.12537,-0.0188 0.1875,-0.0312 0.0434,-0.009 0.026,0.013 0.0781,0 0.0272,-0.007 0.0509,-0.0244 0.0781,-0.0312 0.0505,-0.0126 0.10417,0 0.15625,0 0.0188,0 0.22299,-0.007 0.26563,-0.0156 0.0527,-0.0105 0.10357,-0.0363 0.15625,-0.0469 0.0509,-0.0102 0.0917,-0.006 0.14062,-0.0156 0.0228,-0.005 0.0394,-0.028 0.0625,-0.0312 0.0258,-0.004 0.0526,0.005 0.0781,0 0.07,-0.014 0.13113,-0.0514 0.20312,-0.0625 0.036,-0.006 0.0731,0.004 0.10938,0 0.0762,-0.008 0.0192,-0.0165 0.0781,-0.0312 0.0394,-0.01 0.15055,0 0.17188,0 0.10937,0 0.21875,0 0.32812,0 0.0502,0 0.10667,0.008 0.15625,0 0.0537,-0.009 0.12185,-0.0219 0.17188,-0.0469 0.007,-0.003 0.009,-0.0133 0.0156,-0.0156 0.01,-0.003 0.0219,0.005 0.0312,0 0.005,-0.002 -0.005,-0.0144 0,-0.0156 0.0202,-0.005 0.0419,0.003 0.0625,0 0.0163,-0.002 0.0305,-0.0141 0.0469,-0.0156 0.20742,-0.0189 0.0435,0.0226 0.23437,-0.0156 0.0698,-0.014 0.13139,-0.0515 0.20313,-0.0625 0.0962,-0.0148 0.20005,-0.006 0.29687,-0.0156 0.0682,-0.007 0.135,-0.0241 0.20313,-0.0312 0.0414,-0.004 0.0846,0.0101 0.125,0 0.0478,-0.012 0.17502,-0.10536 0.20312,-0.10938 0.0309,-0.004 0.0627,0.004 0.0937,0 0.0116,-10e-4 0.0201,-0.0124 0.0312,-0.0156 0.23107,-0.066 -0.004,0.003 0.10938,-0.0156 0.0374,-0.006 0.072,-0.025 0.10937,-0.0312 0.0154,-0.003 0.0321,0.005 0.0469,0 0.0237,-0.008 0.0505,-0.0413 0.0781,-0.0469 0.0153,-0.003 0.0319,0.004 0.0469,0 0.0532,-0.0152 0.0997,-0.0531 0.15625,-0.0625 0.0639,-0.0107 0.10211,0.003 0.17187,-0.0156 0.0271,-0.007 0.0512,-0.0235 0.0781,-0.0312 0.0925,-0.0264 0.18876,-0.0361 0.28125,-0.0625 0.0746,-0.0213 0.13695,-0.0633 0.21875,-0.0781 0.0779,-0.0142 0.15334,-10e-4 0.21875,0.0312 0.0371,0.0186 0.14811,0 0.1875,0 0.0508,0 0.0841,-0.005 0.125,0.0156 0.0353,0.0177 0.18988,0 0.23437,0 0.125,0 0.25,0 0.375,0 0.048,0 0.10867,0.01 0.15625,0 0.0211,-0.004 0.0414,-0.0114 0.0625,-0.0156 0.024,-0.005 0.0738,0.0133 0.0937,0 0.01,-0.006 0.007,-0.023 0.0156,-0.0312 0.009,-0.009 0.062,0 0.0781,0 0.0836,0 -0.0354,0.003 0.0781,-0.0156 0.0389,-0.006 0.0866,0.01 0.125,0 0.099,-0.0248 0.20835,-0.0365 0.3125,-0.0469 0.0415,-0.004 0.0846,0.0101 0.125,0 0.005,-10e-4 -0.005,-0.014 0,-0.0156 0.0371,-0.0124 0.0871,0.009 0.125,0 0.0765,-0.0191 0.15527,-0.0214 0.23437,-0.0312 0.0566,-0.007 0.22271,0.0215 0.26563,0 0.0104,-0.005 0.005,-0.026 0.0156,-0.0312 0.025,-0.0125 0.0688,0.0125 0.0937,0 0.10376,-0.0519 0.21549,-0.0343 0.32813,-0.0625 0.0322,-0.008 0.0616,-0.0232 0.0937,-0.0312 0.0152,-0.004 0.0329,0.007 0.0469,0 0.007,-0.003 0.009,-0.0133 0.0156,-0.0156 0.0148,-0.005 0.0329,0.007 0.0469,0 0.007,-0.003 0.008,-0.0138 0.0156,-0.0156 0.0188,-0.005 0.12712,-0.009 0.14062,-0.0156 0.0132,-0.007 0.0173,-0.0266 0.0312,-0.0312 0.0102,-0.003 0.0694,0.009 0.0781,0 0.004,-0.004 -0.005,-0.0133 0,-0.0156 0.018,-0.009 0.10989,-0.0225 0.14062,-0.0312 0.0728,-0.0208 0.32409,0.002 0.35938,-0.0156 0.0132,-0.007 0.0181,-0.0247 0.0312,-0.0312 0.0192,-0.01 0.0426,-0.008 0.0625,-0.0156 0.0621,-0.0249 0.12101,-0.0648 0.1875,-0.0781 0.0752,-0.015 0.10035,-0.0183 0.17187,-0.0469 0.009,-0.004 0.0766,-0.007 0.0937,-0.0156 0.048,-0.024 -0.0258,-0.009 0.0312,-0.0469 0.009,-0.006 0.0214,0.003 0.0312,0 0.007,-0.002 0.009,-0.0133 0.0156,-0.0156 0.0148,-0.005 0.0321,0.005 0.0469,0 0.0705,-0.0235 0.14796,-0.0186 0.21875,-0.0469 0.007,-0.003 0.009,-0.0123 0.0156,-0.0156 0.0246,-0.0123 0.0709,0.0152 0.0937,0 0.009,-0.006 -0.007,-0.0239 0,-0.0312 0.007,-0.007 0.0214,0.003 0.0312,0 0.007,-0.002 0.008,-0.0138 0.0156,-0.0156 0.0187,-0.005 0.0734,0.0102 0.0937,0 0.0209,-0.0105 0.0217,-0.0373 0.0312,-0.0469 0.0133,-0.0133 0.0336,-0.018 0.0469,-0.0312 0.006,-0.006 0.0108,-0.0529 0.0156,-0.0625 0.0192,-0.0383 0.0702,-0.0787 0.0625,-0.125 -0.004,-0.0262 0.004,-0.06 -0.0156,-0.0781 -0.18875,-0.17695 -0.29392,-0.18107 -0.54688,-0.21875 -0.41047,-0.0611 -0.82064,-0.0625 -1.23437,-0.0625 -0.47412,0 -0.98501,-0.0365 -1.45313,0.0469 -0.17681,0.0315 -0.34446,0.10188 -0.51562,0.15625 -1.23416,0.39203 -0.3947,0.10334 -1.51563,0.59375 -0.10251,0.0448 -0.43211,-0.0983 -0.54687,-0.10938 -0.22496,-0.0218 -0.72978,-0.0227 -0.90625,0 -0.18044,0.0232 -0.35286,0.0893 -0.53125,0.125 -0.13435,0.0269 -0.27096,0.0409 -0.40625,0.0625 -0.25534,0.0409 -0.50815,0.10105 -0.76563,0.125 -0.19188,0.0178 -0.38547,0.005 -0.57812,0 -0.80504,-0.0196 -0.73644,-0.0281 -1.60938,-0.17187 -0.14111,-0.0232 -0.28271,-0.0452 -0.42187,-0.0781 -0.0593,-0.014 -0.11102,-0.0589 -0.17188,-0.0625 -0.0349,-0.002 -0.062,0.0323 -0.0937,0.0469 -0.16098,0.074 -0.31308,0.17355 -0.48437,0.21875 -0.22956,0.0606 -1.37933,0.13476 -1.51563,0.14062 -0.48182,0.0207 -0.60588,0.007 -1.0625,-0.0625 -0.38139,-0.0582 -0.76628,-0.1594 -1.15625,-0.125 -0.13352,0.0118 -0.28502,0.0482 -0.39062,0.14063 -0.0196,0.0172 -0.0273,0.0453 -0.0469,0.0625 -0.0229,0.02 -0.0521,0.0312 -0.0781,0.0469 -0.0417,0.0417 -0.0808,0.086 -0.125,0.125 -0.0925,0.0816 -0.20767,0.14972 -0.26563,0.26563 -0.01,0.0192 -0.009,0.0419 -0.0156,0.0625 -0.0257,0.0856 -0.0546,0.17177 -0.0937,0.25 -0.019,0.0381 -0.0776,0.0699 -0.10938,0.0937 -0.0304,0.0228 -0.0235,0.0547 -0.0312,0.0625 -0.007,0.007 -0.0239,-0.007 -0.0312,0 -0.0133,0.0133 -0.0168,0.0349 -0.0312,0.0469 -0.0179,0.0149 -0.0425,0.0193 -0.0625,0.0312 -0.0249,0.015 -0.0748,0.0592 -0.0937,0.0781 -0.007,0.007 0,0.0208 0,0.0312 0,0.0657 5.7e-4,0.12273 -0.0156,0.1875 z"
                   id="path16568" /></g></g><g
               id="g16613"
               style="stroke:none;stroke-opacity:1"
               inkscape:label="Pick"><ellipse
                 style="opacity:1;fill:#f06292;fill-opacity:1;stroke:none;stroke-width:3.00296;stroke-opacity:1"
                 id="path16570"
                 cx="959.65717"
                 cy="681.5625"
                 rx="50.8125"
                 ry="10.3125" /><ellipse
                 style="opacity:1;fill:#f06292;fill-opacity:1;stroke:none;stroke-width:1.26005;stroke-opacity:1"
                 id="path16574"
                 cx="1028.3254"
                 cy="828.88568"
                 rx="11.525108"
                 ry="4.1984463"
                 transform="matrix(0.98932664,-0.1457148,0,1,0,0)" /><path
                 style="opacity:1;fill:#f06292;fill-opacity:1;stroke:none;stroke-width:1.533;stroke-opacity:1"
                 d="m 1029.7242,652.3502 0.088,27.17942 -5.9662,2.2097 z"
                 id="path16576" /><path
                 style="opacity:1;fill:#f06292;fill-opacity:1;stroke:none;stroke-width:1.533;stroke-opacity:1"
                 d="m 890.24744,659.99579 -0.26517,19.44544 1.59099,0.7071 z"
                 id="path16578" /><path
                 style="opacity:1;fill:#f06292;fill-opacity:1;stroke:none;stroke-width:1.533;stroke-opacity:1"
                 d="m 890.375,661.98437 0.42187,10.71875 0.84375,-0.0156 -0.85937,-10.59375 z"
                 id="path16586" /></g></g></g></g></g></g></svg>
